<svg 
 xmlns="http://www.w3.org/2000/svg"
 xmlns:xlink="http://www.w3.org/1999/xlink"
 width="26px" height="15px">
<defs>
<filter id="Filter_0">
    <feFlood flood-color="rgb(110, 119, 74)" flood-opacity="1" result="floodOut" />
    <feComposite operator="atop" in="floodOut" in2="SourceGraphic" result="compOut" />
    <feBlend mode="normal" in="compOut" in2="SourceGraphic" />
</filter>

</defs>
<g filter="url(#Filter_0)">
<path fill-rule="evenodd"  fill="rgb(0, 0, 0)"
 d="M24.828,7.079 L24.828,7.079 L19.148,1.175 C18.944,0.927 18.586,0.898 18.347,1.111 C18.109,1.322 18.081,1.695 18.285,1.943 C18.304,1.966 18.325,1.988 18.347,2.007 L23.056,6.907 L0.568,6.907 C0.254,6.907 -0.000,7.171 -0.000,7.498 C-0.000,7.824 0.254,8.088 0.568,8.088 L23.056,8.088 L18.347,12.982 C18.109,13.194 18.081,13.567 18.285,13.814 C18.489,14.062 18.848,14.091 19.086,13.879 C19.108,13.859 19.129,13.838 19.148,13.814 L24.828,7.911 C25.049,7.681 25.049,7.309 24.828,7.079 Z"/>
</g>
</svg>