<svg 
 xmlns="http://www.w3.org/2000/svg"
 xmlns:xlink="http://www.w3.org/1999/xlink"
 width="16px" height="15px">
<defs>
<filter id="Filter_0">
    <feFlood flood-color="rgb(170, 179, 132)" flood-opacity="1" result="floodOut" />
    <feComposite operator="atop" in="floodOut" in2="SourceGraphic" result="compOut" />
    <feBlend mode="normal" in="compOut" in2="SourceGraphic" />
</filter>

</defs>
<g filter="url(#Filter_0)">
<path fill-rule="evenodd"  fill="rgb(0, 0, 0)"
 d="M15.314,5.129 L10.906,4.721 C10.628,4.696 10.388,4.523 10.274,4.262 L8.696,0.510 C8.443,-0.109 7.546,-0.109 7.293,0.510 L5.727,4.262 C5.626,4.523 5.373,4.696 5.096,4.721 L0.687,5.129 C0.030,5.191 -0.235,5.996 0.258,6.430 L3.580,9.291 C3.794,9.476 3.883,9.749 3.820,10.021 L2.822,14.034 C2.670,14.666 3.365,15.186 3.946,14.851 L7.622,12.734 C7.862,12.597 8.152,12.597 8.392,12.734 L12.068,14.851 C12.649,15.186 13.344,14.678 13.192,14.034 L12.207,10.021 C12.144,9.749 12.232,9.476 12.447,9.291 L15.769,6.430 C16.249,5.996 15.971,5.191 15.314,5.129 Z"/>
</g>
</svg>